<?xml version="1.0" standalone="no"?>
<!DOCTYPE svg PUBLIC "-//W3C//DTD SVG 20010904//EN"
 "http://www.w3.org/TR/2001/REC-SVG-20010904/DTD/svg10.dtd">
<svg version="1.0" xmlns="http://www.w3.org/2000/svg"
 width="512.000000pt" height="512.000000pt" viewBox="0 0 512.000000 512.000000"
 preserveAspectRatio="xMidYMid meet">
<metadata>
Created by potrace 1.14, written by Peter Selinger 2001-2017
</metadata>
<g transform="translate(0.000000,512.000000) scale(0.100000,-0.100000)"
fill="#000000" stroke="none">
<path d="M3810 5109 c-19 -6 -43 -11 -52 -12 -10 -1 -18 -5 -18 -9 0 -4 -3 -7
-7 -7 -5 1 -10 1 -13 -1 -3 -1 -16 -4 -30 -6 -13 -3 -29 -9 -34 -14 -6 -6 -16
-10 -23 -10 -48 0 -468 -229 -550 -300 -7 -5 -24 -15 -38 -22 -14 -6 -25 -15
-25 -20 0 -4 -6 -8 -14 -8 -8 0 -16 -4 -18 -8 -3 -7 -338 -242 -383 -268 -16
-10 -28 -8 -60 10 -22 11 -42 24 -45 27 -3 3 -29 19 -57 35 -29 16 -53 32 -53
37 0 4 -5 7 -11 7 -6 0 -23 8 -37 19 -15 10 -49 31 -77 46 -27 16 -66 37 -85
48 -78 44 -200 106 -200 102 0 -3 -9 3 -20 12 -10 9 -25 18 -32 19 -7 1 -51
20 -98 42 -183 86 -423 177 -440 167 -5 -3 -10 -1 -12 4 -1 6 -16 12 -33 15
-16 3 -55 10 -85 17 -149 30 -347 32 -490 4 -60 -11 -87 -18 -110 -28 -14 -5
-29 -11 -35 -12 -74 -11 -255 -124 -351 -220 -70 -70 -164 -193 -155 -204 1
-2 -1 -7 -6 -10 -20 -13 -84 -188 -100 -271 -7 -39 -7 -229 0 -295 11 -93 40
-250 59 -320 6 -22 13 -44 14 -50 2 -5 6 -22 9 -37 3 -15 10 -39 15 -53 5 -14
6 -25 2 -25 -4 0 -1 -4 6 -9 7 -4 14 -18 15 -29 1 -12 5 -22 10 -22 4 0 6 -4
3 -8 -3 -5 1 -20 9 -35 7 -14 11 -27 9 -30 -2 -2 12 -30 31 -61 19 -32 35 -60
35 -62 0 -8 66 -63 90 -76 14 -7 28 -17 32 -23 4 -5 8 -7 8 -3 0 4 15 1 33 -7
57 -24 172 -15 240 18 31 16 57 33 57 38 0 5 5 9 10 9 15 0 58 48 65 71 4 11
10 19 15 19 8 0 23 39 21 54 -1 4 2 13 7 20 5 6 8 19 6 30 -1 10 1 29 6 42 5
13 6 24 2 24 -4 0 -8 16 -9 35 -1 19 -18 75 -37 125 -20 49 -36 96 -36 103 0
8 -3 17 -7 21 -4 3 -8 14 -9 24 -7 48 -17 88 -23 92 -4 3 -6 12 -6 20 1 8 -2
28 -6 43 -12 44 -23 146 -22 213 0 69 23 118 77 167 38 34 81 58 90 50 3 -4 6
-2 6 4 0 5 6 10 13 11 6 0 29 5 49 10 54 14 205 7 268 -13 30 -9 64 -18 75
-20 39 -8 235 -90 348 -146 31 -15 57 -26 57 -24 0 3 23 -9 50 -25 27 -16 50
-27 50 -24 0 3 13 -4 29 -15 16 -12 32 -21 34 -21 9 0 224 -127 273 -160 23
-17 47 -30 52 -30 6 0 12 -3 14 -7 5 -14 170 -100 233 -123 108 -40 269 -46
360 -15 64 22 168 72 208 99 21 14 40 26 43 26 3 0 48 30 101 68 52 37 107 75
121 84 15 9 32 21 37 26 21 18 327 223 363 243 20 11 55 31 77 44 21 13 43 21
47 19 4 -3 8 -1 8 4 0 12 145 74 205 88 71 16 181 25 200 15 6 -3 21 -7 34 -9
29 -4 104 -38 154 -70 26 -17 47 -45 69 -90 29 -58 33 -77 36 -168 5 -114 -12
-219 -55 -344 -34 -98 -100 -239 -127 -269 -12 -14 -15 -21 -6 -17 9 5 8 2 -2
-7 -10 -8 -18 -17 -18 -21 0 -22 -142 -198 -240 -297 -97 -98 -306 -263 -333
-264 -4 0 -11 -5 -15 -10 -15 -21 -214 -123 -335 -171 -119 -48 -276 -96 -319
-98 -10 0 -18 -3 -18 -6 0 -3 -8 -6 -17 -7 -10 -1 -31 -4 -48 -8 -16 -3 -48
-8 -70 -11 -21 -2 -51 -7 -65 -9 -14 -3 -50 -9 -80 -13 -96 -12 -635 -6 -635
8 0 2 -34 7 -96 13 -31 4 -67 8 -80 11 -23 6 -51 11 -113 22 -141 26 -578 153
-600 175 -6 5 -18 9 -28 9 -10 0 -26 4 -36 9 -17 9 -47 21 -67 27 -5 1 -50 20
-100 41 -81 34 -98 38 -175 37 -97 -1 -117 -5 -180 -36 -50 -25 -135 -106
-145 -138 -3 -11 -11 -20 -17 -20 -6 0 -9 -3 -6 -6 4 -3 0 -22 -9 -42 -15 -36
-18 -49 -30 -112 -8 -48 -10 -260 -2 -260 4 0 7 -10 6 -22 -1 -21 9 -102 19
-153 2 -11 5 -31 8 -45 13 -79 19 -110 33 -169 15 -70 25 -109 43 -181 7 -25
14 -54 16 -66 2 -12 10 -40 18 -63 9 -22 13 -41 9 -41 -3 0 0 -6 6 -13 6 -8 8
-17 4 -20 -3 -4 -2 -7 3 -7 5 0 10 -8 11 -17 2 -26 7 -46 16 -60 5 -7 6 -13 3
-13 -3 0 3 -24 13 -53 10 -28 42 -126 71 -217 29 -91 56 -169 61 -175 5 -5 9
-17 9 -27 0 -10 4 -26 9 -36 5 -9 24 -55 41 -102 17 -47 39 -98 48 -115 9 -16
16 -32 16 -35 -2 -17 129 -288 172 -355 13 -22 27 -48 31 -57 3 -10 9 -18 14
-18 5 0 15 -12 23 -28 14 -26 116 -139 116 -128 0 3 12 -6 26 -19 14 -13 55
-39 92 -57 l67 -33 225 0 c124 0 235 2 247 5 19 6 76 31 113 51 8 5 31 16 50
26 19 9 40 21 45 25 6 4 39 29 75 55 36 26 84 66 107 89 23 23 45 39 48 36 3
-3 5 -1 5 4 0 5 29 41 65 79 36 39 65 73 65 77 0 4 6 13 13 20 7 7 35 42 61
78 27 36 53 65 58 65 6 0 16 -9 22 -20 10 -18 46 -68 103 -142 12 -16 36 -44
53 -61 16 -18 28 -32 25 -32 -8 0 115 -119 165 -159 25 -20 47 -38 50 -41 14
-14 70 -50 79 -50 5 0 11 -4 13 -8 4 -10 127 -72 148 -75 8 -2 22 -7 30 -12
21 -14 407 -18 415 -5 3 5 14 10 23 10 28 0 152 68 206 113 67 56 154 148 162
170 3 9 10 17 15 17 5 0 9 7 9 15 0 8 4 15 8 15 17 0 162 274 162 305 0 8 4
15 9 15 5 0 11 10 14 23 3 12 24 76 47 142 23 66 43 127 45 135 2 8 13 51 24
96 26 97 23 83 61 264 17 80 33 161 36 180 3 19 8 46 11 60 9 43 11 193 3 209
-5 9 -14 31 -20 48 -7 18 -16 33 -21 33 -5 0 -9 6 -9 14 0 21 -88 96 -140 118
-93 40 -220 29 -310 -27 -45 -28 -99 -89 -115 -129 -7 -17 -16 -40 -20 -51 -5
-11 -9 -29 -10 -40 -21 -199 -108 -566 -189 -791 -60 -166 -122 -234 -221
-240 -90 -5 -152 32 -238 145 -23 31 -45 58 -49 59 -5 2 -8 10 -8 17 0 7 -4
15 -9 17 -8 3 -91 133 -91 143 0 3 -11 23 -25 45 -14 22 -22 40 -18 40 5 0 3
4 -2 8 -6 4 -17 20 -25 36 -41 80 -178 181 -291 216 -56 17 -178 18 -249 2
-66 -14 -149 -49 -162 -67 -4 -5 -8 -7 -8 -3 0 8 -24 -11 -75 -58 -13 -12 -21
-25 -18 -28 4 -3 1 -6 -5 -6 -12 0 -65 -104 -65 -127 0 -7 -4 -13 -9 -13 -4 0
-7 -3 -6 -7 3 -12 -26 -103 -33 -103 -3 0 -6 -6 -6 -13 0 -26 -91 -201 -128
-246 -91 -111 -155 -142 -248 -118 -30 8 -59 29 -109 79 -37 38 -68 75 -68 82
0 8 -4 16 -8 18 -10 4 -105 198 -117 238 -1 3 -20 64 -43 135 -38 119 -74 252
-86 315 -7 39 -75 296 -85 324 -6 13 -7 27 -4 30 4 3 2 6 -3 6 -9 0 -14 18
-17 63 -1 9 -6 17 -11 17 -5 0 -6 3 -3 7 4 3 2 12 -4 19 -6 8 -9 21 -5 29 3 8
1 15 -4 15 -6 0 -9 3 -9 8 1 4 1 9 -1 12 -1 3 -3 16 -6 30 -2 14 -6 35 -9 47
-4 19 -2 21 20 17 15 -2 43 -11 63 -19 41 -15 292 -85 332 -91 14 -3 32 -7 40
-10 8 -3 26 -7 40 -10 14 -2 35 -6 48 -9 53 -12 69 -16 101 -20 18 -2 41 -6
50 -9 9 -3 39 -7 66 -11 28 -3 64 -8 80 -11 17 -3 55 -7 85 -9 30 -2 55 -4 55
-5 0 -4 80 -10 170 -14 50 -2 90 -5 90 -6 0 -1 10 -3 23 -4 12 -2 22 0 22 3 0
3 11 6 25 6 14 0 25 -4 25 -8 0 -4 9 -3 20 3 15 8 20 8 20 -1 0 -9 3 -9 14 0
10 8 16 9 21 1 3 -6 11 -7 17 -3 7 3 52 7 102 9 50 1 91 3 91 4 0 1 20 4 45 6
71 6 203 23 230 29 3 1 25 5 50 9 25 5 54 10 65 13 11 2 31 6 45 9 51 10 212
55 282 80 40 14 84 27 98 30 13 3 29 9 36 14 6 6 29 16 50 24 22 7 60 23 85
34 24 11 48 20 53 20 5 0 12 4 15 9 6 8 89 49 104 51 4 1 13 6 20 12 6 6 46
31 87 55 41 24 83 50 94 57 45 31 153 110 180 130 15 13 40 32 53 43 35 28
263 253 293 290 102 124 210 275 210 294 0 6 5 11 10 11 6 0 10 7 10 15 0 8 4
15 9 15 5 0 14 12 20 28 6 15 26 55 45 89 18 34 31 64 28 67 -3 3 -1 6 5 6 6
0 14 10 18 23 12 37 13 39 44 117 44 111 40 97 74 230 14 52 28 115 31 140 4
25 9 61 12 80 15 97 6 304 -17 410 -25 112 -97 291 -139 343 -122 151 -142
171 -250 243 -62 41 -160 95 -180 100 -3 0 -18 6 -35 13 -106 44 -103 44 -375
47 -158 2 -279 -1 -300 -7z"/>
</g>
</svg>
